<svg width="738" height="902" viewBox="0 0 738 902" fill="none" xmlns="http://www.w3.org/2000/svg">
<path d="M822.584 512.504V642.603L359.218 624.781L45.5544 642.603V562.405L52.6832 559.084V512.504H59.8119V460.274H75.8515L182.782 403.791V303.99L75.8515 384.187V339.633V303.99L100.802 282.57V211.316L145.356 173.266V127.554L254.069 36.6631L293.277 46.9399L344.96 2.80176L557.04 106.168V90.1284L676.445 36.6631L766.925 90.1284V255.871L794.069 270.128V339.633L640.802 384.187L523.178 373.494V417.857L749.515 471.514V497.328L822.584 512.504Z" fill="white"/>
<path d="M359.218 416.267V624.781M359.218 416.267L336.049 427.061M359.218 416.267L523.178 450.32M359.218 624.781L822.584 642.603V512.504L523.178 450.32M359.218 624.781L45.5544 642.603V562.405L52.6832 559.084M264.762 460.274V195.277M264.762 460.274L336.049 427.061M264.762 460.274L52.6832 559.084M264.762 195.277V141.811L100.802 282.57M264.762 195.277L75.8515 339.633M75.8515 339.633V303.99L100.802 282.57M75.8515 339.633V384.187L182.782 303.99V403.791L75.8515 460.274H59.8119V512.504M59.8119 512.504L336.049 373.494M59.8119 512.504H52.6832V559.084M336.049 373.494L749.515 471.514V512.504M336.049 373.494V427.061M557.04 106.168V90.1284L676.446 36.6631L766.925 90.1284M557.04 106.168L344.96 2.80176M557.04 106.168L631.891 152.505M344.96 2.80176L293.277 46.9399M344.96 2.80176V27.7522M100.802 282.57V211.316L145.356 173.266M145.356 173.266V127.554L254.069 36.6631M145.356 173.266L254.069 80.424M254.069 36.6631V80.424M254.069 36.6631L293.277 46.9399M254.069 80.424L293.277 46.9399M344.96 27.7522L631.891 184.584V152.505M344.96 27.7522V173.266M631.891 152.505L731.693 211.316M794.069 106.168L766.925 90.1284M766.925 90.1284V255.871L794.069 270.128V339.633M794.069 339.633L640.802 384.187L523.178 373.494V348.544M794.069 339.633L692.485 303.99M523.178 450.32V348.544M344.96 173.266L631.891 303.99L523.178 348.544M344.96 173.266L303.97 195.277M523.178 348.544V282.57L378.822 225.084M303.97 195.277V303.99L378.822 323.593V225.084M303.97 195.277L378.822 225.084" stroke="black" stroke-opacity="0.5" stroke-width="3.56435"/>
<path d="M567.733 271.912L635.455 302.209V241.615L567.733 209.535V271.912Z" fill="white"/>
<path d="M669.317 524.981L359.218 485.773L270.109 515.06L104.366 569.535V626.565L359.218 582.01L669.317 599.832V524.981Z" fill="white"/>
<path d="M647.931 742.851V753.099L614.069 758.248L590.901 761.77L557.04 766.919L519.614 772.609L451.891 782.906V745.956L405.554 746.69L373.475 747.199V782.906L343.178 799.436L291.495 787.751L260.855 780.823L221.99 772.037V749.598V635.476H270.109L262.884 748.951L294.537 748.449L373.475 747.199V626.565H405.554V746.69L451.891 745.956V626.565H519.614V744.883L557.04 744.291V635.476H590.901V743.754L614.069 743.387V635.476H647.931V742.851Z" fill="white"/>
<path d="M765.554 252.308L635.455 209.535V241.615M635.455 241.615V302.209L567.733 271.912V209.535L635.455 241.615ZM435.851 398.446V314.684L519.614 350.327M270.109 515.06L104.366 569.535V626.565L359.218 582.01L669.317 599.832V524.981L359.218 485.773L270.109 515.06ZM270.109 515.06V466.169M75.8515 455.476V382.406M156.05 416.268V323.595L138.228 337.852V426.961L115.059 437.654V350.327L93.6733 371.713V448.347M145.356 635.475L138.228 753.099M614.069 758.248L647.931 753.099V635.475H614.069V758.248ZM614.069 758.248L590.901 761.77M590.901 761.77V635.475H557.04V766.919M590.901 761.77L557.04 766.919M557.04 766.919L519.614 772.609M519.614 772.609V626.565H451.891V782.906L519.614 772.609ZM405.554 782.906V626.565H373.475V782.906L343.178 799.436L291.495 787.751M343.178 626.565H303.97L291.495 787.751M291.495 787.751L260.855 780.823M260.855 780.823L270.109 635.475H221.99V772.037L260.855 780.823ZM175.653 635.475V761.77M557.04 45.5752V161.417M25.9505 799.436L359.218 899.238L824.366 817.257M792.287 811.911L303.97 899.238L47.3366 817.257M1 753.099L901 738.842" stroke="black" stroke-opacity="0.5" stroke-width="3.56435"/>
</svg>
